<svg width="48" height="48" viewBox="0 0 48 48" fill="none" xmlns="http://www.w3.org/2000/svg">
<g clip-path="url(#clip0_20944_1211)">
<path fill-rule="evenodd" clip-rule="evenodd" d="M23.9957 45.8909C36.3498 45.8909 46.4203 35.9622 46.4203 23.8055C46.4203 11.6487 36.3498 1.72852 23.9957 1.72852C11.6416 1.72852 1.5625 11.6403 1.5625 23.8055C1.5625 35.9707 11.6416 45.8909 23.9957 45.8909Z" fill="#1D1D1B"/>
<path fill-rule="evenodd" clip-rule="evenodd" d="M3.06543 34.3613L14.2606 14.4954L20.9742 14.3599L25.9622 37.9871L19.0254 38.0041L18.2355 34.0055H10.0023L6.90303 39.8509C6.90303 39.8509 3.22855 35.9285 3.07401 34.3613H3.06543ZM12.8869 29.0242H17.4371L16.424 22.0436L12.8869 29.0242Z" fill="white"/>
<path fill-rule="evenodd" clip-rule="evenodd" d="M24.0043 1.7282C11.7188 1.7282 1.75997 11.6145 1.75997 23.8052C1.75997 35.9958 11.7188 45.8906 24.0043 45.8906C36.2898 45.8906 46.24 36.0042 46.24 23.8052C46.24 11.6061 36.2812 1.7282 24.0043 1.7282ZM24.0043 0C37.2513 0 48 10.7504 48 24C48 37.2496 37.2513 48 24.0043 48C10.7573 48 0 37.258 0 24C0 10.742 10.7487 0 24.0043 0Z" fill="#DE1319"/>
<path fill-rule="evenodd" clip-rule="evenodd" d="M26.9407 37.9866L34.8906 38.0459L39.7069 7.19238L27.5502 9.395L26.5801 14.2238L31.0358 13.2072L26.9407 37.9866Z" fill="white"/>
</g>
<defs>
<clipPath id="clip0_20944_1211">
<rect width="48" height="48" fill="white"/>
</clipPath>
</defs>
</svg>
